<svg xmlns="http://www.w3.org/2000/svg" viewBox="0 0 100 100" width="512" height="512">
  <!-- Maskable icons need a 'safe zone' in the center 80% — Android crops aggressively. -->
  <rect width="100" height="100" fill="#0F766E"/>
  <svg x="32" y="32" width="36" height="36" viewBox="0 0 24 24" fill="none" stroke="#ffffff" stroke-width="2" stroke-linecap="round" stroke-linejoin="round">
    <path d="M11 21.73a2 2 0 0 0 2 0l7-4A2 2 0 0 0 21 16V8a2 2 0 0 0-1-1.73l-7-4a2 2 0 0 0-2 0l-7 4A2 2 0 0 0 3 8v8a2 2 0 0 0 1 1.73z"/>
    <path d="M12 22V12"/>
    <path d="m3.3 7 7.703 4.734a2 2 0 0 0 1.994 0L20.7 7"/>
    <path d="m7.5 4.27 9 5.15"/>
  </svg>
</svg>
